<svg width="720" height="512" viewBox="0 0 720 512" fill="none" xmlns="http://www.w3.org/2000/svg">
<g clip-path="url(#clip0_263_974)">
<rect width="720" height="512" fill="#1D1D1D"/>
<path d="M536.308 417.89L586.12 357.149" stroke="#0047FF" stroke-width="12.6551" stroke-linecap="round" stroke-linejoin="round"/>
<path d="M415.13 318.515L475.719 368.202L586.424 357.399M586.424 357.399L525.531 307.462M586.424 357.399L575.468 246.57M586.424 357.399L597.2 467.827L707.753 456.899L768.493 506.711" stroke="#FF0000" stroke-width="12.6551" stroke-linecap="round" stroke-linejoin="round"/>
<path d="M657.594 518.371L718.334 568.183" stroke="#FF0000" stroke-width="12.6551" stroke-linecap="round" stroke-linejoin="round"/>
<path d="M355.025 269.477L294.284 219.665L404.961 208.585L464.943 257.775" stroke="#FF0000" stroke-width="12.6551" stroke-linecap="round" stroke-linejoin="round"/>
<path d="M624.809 186.713L685.549 236.525L674.621 125.972" stroke="#FF0000" stroke-width="12.6551" stroke-linecap="round" stroke-linejoin="round"/>
<path d="M735.362 175.785L724.434 65.2322" stroke="#FF0000" stroke-width="12.6551" stroke-linecap="round" stroke-linejoin="round"/>
<path d="M343.474 159.684L355.025 269.477" stroke="#0047FF" stroke-width="12.6551" stroke-linecap="round" stroke-linejoin="round"/>
<path d="M404.961 208.585L414.978 318.39" stroke="#0047FF" stroke-width="12.6551" stroke-linecap="round" stroke-linejoin="round"/>
<path d="M647.315 407.336L657.593 518.371" stroke="#0047FF" stroke-width="12.6551" stroke-linecap="round" stroke-linejoin="round"/>
<path d="M768.948 507.085L779.226 618.12" stroke="#0047FF" stroke-width="12.6551" stroke-linecap="round" stroke-linejoin="round"/>
<path d="M525.379 307.338L634.908 297.348" stroke="#0047FF" stroke-width="12.6551" stroke-linecap="round" stroke-linejoin="round"/>
<path d="M624.505 186.465L735.361 175.786" stroke="#0047FF" stroke-width="12.6551" stroke-linecap="round" stroke-linejoin="round"/>
<path d="M724.433 65.2326L834.986 54.3045" stroke="#0047FF" stroke-width="12.6551" stroke-linecap="round" stroke-linejoin="round"/>
<path d="M415.185 319.067L465.246 258.023" stroke="#0047FF" stroke-width="12.6551" stroke-linecap="round" stroke-linejoin="round"/>
<path d="M475.567 368.078L525.379 307.338" stroke="#0047FF" stroke-width="12.6551" stroke-linecap="round" stroke-linejoin="round"/>
<path d="M718.334 568.184L768.645 506.836" stroke="#0047FF" stroke-width="12.6551" stroke-linecap="round" stroke-linejoin="round"/>
<path d="M658.201 518.869L708.511 457.521" stroke="#0047FF" stroke-width="12.6551" stroke-linecap="round" stroke-linejoin="round"/>
<path d="M635.737 297.266L685.549 236.525" stroke="#0047FF" stroke-width="12.6551" stroke-linecap="round" stroke-linejoin="round"/>
<path d="M575.44 246.293L624.505 186.464" stroke="#0047FF" stroke-width="12.6551" stroke-linecap="round" stroke-linejoin="round"/>
<path d="M674.622 125.973L724.434 65.2322" stroke="#0047FF" stroke-width="12.6551" stroke-linecap="round" stroke-linejoin="round"/>
<path d="M725.344 65.9795L785.174 115.045" stroke="#0047FF" stroke-width="12.6551" stroke-linecap="round" stroke-linejoin="round"/>
<path d="M576.959 247.539L636.788 296.604" stroke="#0047FF" stroke-width="12.6551" stroke-linecap="round" stroke-linejoin="round"/>
<path d="M271.568 570.069L333.198 497.997" stroke="#FF0000" stroke-width="12.6551" stroke-linecap="round" stroke-linejoin="round"/>
<path d="M323.826 365.208L252.466 304.188L384.235 294.563L323.826 365.208Z" stroke="#FF0000" stroke-width="12.6551" stroke-linecap="round" stroke-linejoin="round"/>
<path d="M119.477 315.242L190.836 376.262L58.4574 386.601L119.477 315.242Z" stroke="#FF0000" stroke-width="12.6551" stroke-linecap="round" stroke-linejoin="round"/>
<path d="M455.368 356.932L466.188 486.943" stroke="#0047FF" stroke-width="12.6551" stroke-linecap="round" stroke-linejoin="round"/>
<path d="M393.607 427.351L455.237 355.278" stroke="#0047FF" stroke-width="12.6551" stroke-linecap="round" stroke-linejoin="round"/>
<path d="M395.185 426.229L465.473 486.333" stroke="#0047FF" stroke-width="12.6551" stroke-linecap="round" stroke-linejoin="round"/>
<path d="M395.185 426.228L404.736 559.168" stroke="#0047FF" stroke-width="12.6551" stroke-linecap="round" stroke-linejoin="round"/>
<path d="M333.198 497.996L394.828 425.923" stroke="#0047FF" stroke-width="12.6551" stroke-linecap="round" stroke-linejoin="round"/>
<path d="M333.198 497.996L403.487 558.101" stroke="#0047FF" stroke-width="12.6551" stroke-linecap="round" stroke-linejoin="round"/>
<path d="M-31.1865 61.6357L38.3887 121.13" stroke="#FF0000" stroke-width="12.6551" stroke-linecap="round" stroke-linejoin="round"/>
<path d="M384.235 294.563L455.595 355.583" stroke="#FF0000" stroke-width="12.6551" stroke-linecap="round" stroke-linejoin="round"/>
<path d="M38.7461 121.435L97.9353 52.2161" stroke="#FF0000" stroke-width="12.6551" stroke-linecap="round" stroke-linejoin="round"/>
<path d="M130.378 448.409L-2.56156 457.96" stroke="#0047FF" stroke-width="12.6551" stroke-linecap="round" stroke-linejoin="round"/>
<path d="M58.7637 386.245L130.836 447.875" stroke="#0047FF" stroke-width="12.6551" stroke-linecap="round" stroke-linejoin="round"/>
<path d="M58.6098 386.424L-1.49461 456.713" stroke="#0047FF" stroke-width="12.6551" stroke-linecap="round" stroke-linejoin="round"/>
<path d="M99.2588 52.1125L109.086 182.201" stroke="#0047FF" stroke-width="12.6551" stroke-linecap="round" stroke-linejoin="round"/>
<path d="M98.8502 51.1457L-32.3575 61.5602" stroke="#0047FF" stroke-width="12.6551" stroke-linecap="round" stroke-linejoin="round"/>
<path d="M252.109 303.884L120.087 314.528" stroke="#0047FF" stroke-width="12.6551" stroke-linecap="round" stroke-linejoin="round"/>
<path d="M169.801 111.199L38.7455 121.435" stroke="#FF0000" stroke-width="12.6551" stroke-linecap="round" stroke-linejoin="round"/>
<path d="M170.515 111.809L180.802 243.526" stroke="#FF0000" stroke-width="12.6551" stroke-linecap="round" stroke-linejoin="round"/>
<path d="M180.803 243.526L191.447 375.548" stroke="#FF0000" stroke-width="12.6551" stroke-linecap="round" stroke-linejoin="round"/>
<path d="M181.107 243.169L241.212 172.88" stroke="#0047FF" stroke-width="12.6551" stroke-linecap="round" stroke-linejoin="round"/>
<path d="M323.826 365.208L395.185 426.228" stroke="#0047FF" stroke-width="12.6551" stroke-linecap="round" stroke-linejoin="round"/>
<path d="M181.107 243.169L252.11 303.884" stroke="#0047FF" stroke-width="12.6551" stroke-linecap="round" stroke-linejoin="round"/>
<path d="M169.801 111.199L241.517 172.524" stroke="#0047FF" stroke-width="12.6551" stroke-linecap="round" stroke-linejoin="round"/>
<path d="M441.317 -48.3711L383.609 21.2285" stroke="#FF0000" stroke-width="12.6551" stroke-linecap="round" stroke-linejoin="round"/>
<path d="M454.095 81.4619L394.923 152.828" stroke="#0047FF" stroke-width="12.6551" stroke-linecap="round" stroke-linejoin="round"/>
<path d="M770.469 -13.9287L711.882 56.7307" stroke="#0047FF" stroke-width="12.6551" stroke-linecap="round" stroke-linejoin="round"/>
<path d="M522.876 140.875L464.104 211.381" stroke="#FF0000" stroke-width="12.6551" stroke-linecap="round" stroke-linejoin="round"/>
<path d="M523.695 139.17L452.329 79.9971" stroke="#FF0000" stroke-width="12.6551" stroke-linecap="round" stroke-linejoin="round"/>
<path d="M711.882 56.7314L643.342 -0.0979538" stroke="#FF0000" stroke-width="12.6551" stroke-linecap="round" stroke-linejoin="round"/>
<path d="M452.683 80.29L381.317 21.1172" stroke="#0047FF" stroke-width="12.6551" stroke-linecap="round" stroke-linejoin="round"/>
<path d="M464.289 211.535L591.95 199.937" stroke="#FF0000" stroke-width="12.6551" stroke-linecap="round" stroke-linejoin="round"/>
<path d="M629.15 -131.103L642.635 -0.684609" stroke="#FF0000" stroke-width="12.6551" stroke-linecap="round" stroke-linejoin="round"/>
<path d="M524.756 140.048L537 267.649" stroke="#0047FF" stroke-width="12.6551" stroke-linecap="round" stroke-linejoin="round"/>
<path d="M371.308 -106.374L381.261 21.1146" stroke="#0047FF" stroke-width="12.6551" stroke-linecap="round" stroke-linejoin="round"/>
<path d="M443.609 -48.2591L454.268 79.8157" stroke="#0047FF" stroke-width="12.6551" stroke-linecap="round" stroke-linejoin="round"/>
<path d="M700.395 -73.2225L711.882 56.7306" stroke="#0047FF" stroke-width="12.6551" stroke-linecap="round" stroke-linejoin="round"/>
<path d="M643.342 -0.0982484L769.004 -12.1618" stroke="#0047FF" stroke-width="12.6551" stroke-linecap="round" stroke-linejoin="round"/>
<path d="M394.922 152.828L522.816 140.23" stroke="#0047FF" stroke-width="12.6551" stroke-linecap="round" stroke-linejoin="round"/>
<path d="M312.031 267.532L651.077 333.211" stroke="#FF0000" stroke-width="34.1929" stroke-linecap="round" stroke-linejoin="round"/>
<path d="M371.049 -64.0967L710.095 1.5816" stroke="#FF0000" stroke-width="34.1929" stroke-linecap="round" stroke-linejoin="round"/>
<path d="M308.675 266.882L-25.3354 202.179L371.049 -64.0972L308.675 266.882Z" stroke="#FF0000" stroke-width="34.1929" stroke-linecap="round" stroke-linejoin="round"/>
<path d="M1048.82 68.938L644.904 338.109" stroke="#0047FF" stroke-width="34.1929" stroke-linecap="round" stroke-linejoin="round"/>
<path d="M710.095 1.58203L1049.14 67.2603" stroke="#0047FF" stroke-width="34.1929" stroke-linecap="round" stroke-linejoin="round"/>
<path d="M710.095 1.58198L646.043 332.236" stroke="#0047FF" stroke-width="34.1929" stroke-linecap="round" stroke-linejoin="round"/>
<path d="M-24.1446 205.022L-298.975 -192.149" stroke="#FF0000" stroke-width="34.1929" stroke-linecap="round" stroke-linejoin="round"/>
<path d="M245.65 601.217L-25.3357 202.179" stroke="#FF0000" stroke-width="34.1929" stroke-linecap="round" stroke-linejoin="round"/>
<path d="M37.0389 -128.8L-359.346 137.476" stroke="#FF0000" stroke-width="34.1929" stroke-linecap="round" stroke-linejoin="round"/>
<path d="M581.014 667.923L310.029 268.885" stroke="#0047FF" stroke-width="34.1929" stroke-linecap="round" stroke-linejoin="round"/>
<path d="M308.35 268.561L243.972 600.893" stroke="#0047FF" stroke-width="34.1929" stroke-linecap="round" stroke-linejoin="round"/>
<path d="M363.706 39.81C365.167 37.279 368.82 37.279 370.281 39.81L617.147 467.393C618.608 469.924 616.781 473.088 613.859 473.088H120.128C117.205 473.088 115.379 469.924 116.84 467.393L363.706 39.81Z" fill="url(#paint0_linear_263_974)"/>
</g>
<defs>
<linearGradient id="paint0_linear_263_974" x1="366.993" y1="34.1152" x2="366.993" y2="619.413" gradientUnits="userSpaceOnUse">
<stop offset="0.16" stop-color="#FF0000"/>
<stop offset="0.375" stop-color="#0047FF"/>
<stop offset="0.585" stop-color="#FF0000"/>
<stop offset="0.695" stop-color="#0047FF"/>
</linearGradient>
<clipPath id="clip0_263_974">
<rect width="720" height="512" fill="white"/>
</clipPath>
</defs>
</svg>
